
<svg xmlns="http://www.w3.org/2000/svg" version="1.1" id="svg2" xml:space="preserve" width="764.71033" height="400" viewBox="0 0 764.71033 399.99999"><defs id="defs6"></defs><g id="g10" transform="matrix(1.3333333,0,0,-1.3333333,-88.904198,783.18131)"><g id="g1243"><g id="g1191"><g id="g1140"><path d="M 227.85534,553.15829 H 262.0877 V 587.386 h -34.23236 v -34.22771" style="fill:#b77a2e;fill-opacity:1;fill-rule:nonzero;stroke:none;stroke-width:0.465051" id="path622"></path><path d="m 280.62926,584.52594 v -28.52155 h 356.5821 v 28.52155 h -356.5821" style="fill:#b77a2e;fill-opacity:1;fill-rule:nonzero;stroke:none;stroke-width:0.465051" id="path624"></path><path d="M 66.67815,584.52594 H 209.30448 V 556.00439 H 66.67815 v 28.52155" style="fill:#b77a2e;fill-opacity:1;fill-rule:nonzero;stroke:none;stroke-width:0.465051" id="path626"></path><path d="M 66.67815,527.4782 H 209.30448 V 498.952 H 66.67815 v 28.5262" style="fill:#b77a2e;fill-opacity:1;fill-rule:nonzero;stroke:none;stroke-width:0.465051" id="path628"></path><path d="M 66.67815,470.41186 H 209.30448 V 441.89962 H 66.67815 v 28.51224" style="fill:#b77a2e;fill-opacity:1;fill-rule:nonzero;stroke:none;stroke-width:0.465051" id="path630"></path><path d="m 227.85534,496.0966 h 34.23236 v 34.23236 H 227.85534 V 496.0966" style="fill:#b77a2e;fill-opacity:1;fill-rule:nonzero;stroke:none;stroke-width:0.465051" id="path632"></path><path d="M 280.62926,527.4782 V 498.952 h 356.5821 v 28.5262 h -356.5821" style="fill:#b77a2e;fill-opacity:1;fill-rule:nonzero;stroke:none;stroke-width:0.465051" id="path634"></path><path d="M 66.67815,527.4782 H 209.30448 V 498.952 H 66.67815 v 28.5262" style="fill:#b77a2e;fill-opacity:1;fill-rule:nonzero;stroke:none;stroke-width:0.465051" id="path636"></path><path d="m 227.85534,439.0349 h 34.23236 v 34.24632 H 227.85534 V 439.0349" style="fill:#b77a2e;fill-opacity:1;fill-rule:nonzero;stroke:none;stroke-width:0.465051" id="path638"></path><path d="m 280.62926,470.42115 v -28.52153 h 356.5821 v 28.52153 h -356.5821" style="fill:#b77a2e;fill-opacity:1;fill-rule:nonzero;stroke:none;stroke-width:0.465051" id="path640"></path><path d="M 66.67815,470.42115 H 209.30448 V 441.89962 H 66.67815 v 28.52153" style="fill:#b77a2e;fill-opacity:1;fill-rule:nonzero;stroke:none;stroke-width:0.465051" id="path642"></path><path d="m 271.17478,379.5689 v 10.04509 c 0.0232,1.34399 -1.02776,2.41826 -2.3857,2.40897 h -40.93374 v -4.92955 c 0,0 34.66485,0 35.07876,0 0,-0.41854 0,-7.79423 0,-7.79423 0,-4.38544 -0.41391,-7.3385 -1.12543,-8.79411 h -36.46925 v -4.95279 h 20.02506 v -8.85921 h -17.50914 v -4.92024 h 35.07876 v -18.20672 h 8.24068 v 20.74124 c 0.0232,1.33471 -1.02776,2.41363 -2.3857,2.38572 h -15.1839 v 8.85921 h 20.04832 v 4.95279 h -4.05058 c 1.3719,1.93461 1.57186,6.73859 1.57186,9.06383" style="fill:#485158;fill-opacity:1;fill-rule:nonzero;stroke:none;stroke-width:0.465051" id="path644"></path><path d="m 324.30216,350.02425 c -0.386,0 -24.53607,0 -24.92206,0 v 6.61302 h -8.25465 v -17.78354 c 0,-3.39487 1.89276,-5.27366 5.32018,-5.27366 h 33.73476 c 1.33935,-0.0465 2.41827,1.0231 2.37641,2.38105 v 20.67615 h -8.25464 c 0,0 0,-6.20378 0,-6.61302 z m 0,-11.53791 H 299.3801 v 6.63162 h 24.92206 v -6.63162" style="fill:#485158;fill-opacity:1;fill-rule:nonzero;stroke:none;stroke-width:0.465051" id="path646"></path><path d="m 324.30216,391.9718 c 0,0 0,-23.94545 0,-24.23844 0,0 -8.78016,-1.13472 -16.89064,-1.13472 0,0 -10.74267,0 -11.17051,0 0,0.41855 0,7.66869 0,8.08259 0.42784,0 20.87146,0 20.87146,0 v 14.8909 c 0.0512,1.3347 -1.03241,2.40432 -2.3857,2.39967 h -26.55904 v -4.78072 c 0,0 20.48082,0 20.89937,0 v -7.73379 h -19.68559 c -0.67897,0.0279 -1.21378,-0.51156 -1.21378,-1.19053 v -11.24027 c 0,-3.40882 1.91136,-5.27367 5.32949,-5.27367 h 10.89613 c 10.99378,0 17.36033,1.14403 19.90881,1.76719 v -3.19955 h 8.25464 v 31.65134 h -8.25464" style="fill:#485158;fill-opacity:1;fill-rule:nonzero;stroke:none;stroke-width:0.465051" id="path648"></path><path d="m 611.23829,379.062 c 0,-6.33864 -1.51607,-10.21717 -1.51607,-10.21717 h 7.71984 c 0,0 1.87415,3.61345 1.87415,10.14741 v 10.57989 c 0.0185,1.3347 -1.05566,2.40432 -2.39966,2.39967 h -26.7311 v -4.89699 c 0,0 20.66219,0 21.05284,0 0,-0.4418 0,-8.01281 0,-8.01281" style="fill:#485158;fill-opacity:1;fill-rule:nonzero;stroke:none;stroke-width:0.465051" id="path650"></path><path d="m 601.93727,354.76311 h -8.25929 v -15.90938 c 0,-3.39487 1.90206,-5.27366 5.32948,-5.27366 h 36.11116 v 4.90627 h -33.18135 v 16.27677" style="fill:#485158;fill-opacity:1;fill-rule:nonzero;stroke:none;stroke-width:0.465051" id="path652"></path><path d="m 634.58847,381.47561 v 10.49619 h -8.2686 v -26.19165 c 0,0 -8.23605,-1.09751 -16.36048,-1.09751 0,0 -3.00887,0 -6.64556,0 0,0.43715 0,13.8771 0,13.8771 h -7.86401 c 0,0 0,-13.43995 0,-13.8771 h -6.68278 v -4.88769 h 17.62076 c 10.9752,0 17.38824,1.15798 19.93207,1.79976 0,-2.72521 0,-11.92391 0,-11.92391 h 8.2686 v 26.59159 h 5.62246 v 5.21322 h -5.62246" style="fill:#485158;fill-opacity:1;fill-rule:nonzero;stroke:none;stroke-width:0.465051" id="path654"></path><path d="m 493.56192,361.74351 c 1.33934,-0.0325 2.43221,1.06032 2.39966,2.38572 v 27.83327 h -8.05933 V 381.70348 H 475.61563 V 391.9625 H 467.547 v -24.96857 c 0,-3.39952 1.8788,-5.25042 5.30622,-5.25042 z m -17.94629,15.16995 h 12.28662 v -10.25435 h -12.28662 v 10.25435" style="fill:#485158;fill-opacity:1;fill-rule:nonzero;stroke:none;stroke-width:0.465051" id="path656"></path><path d="m 509.01089,356.62796 h -38.51083 v -4.77606 h 32.6419 v -18.27183 h 8.27325 v 20.66683 c 0.0279,1.3347 -1.04172,2.40432 -2.40432,2.38106" style="fill:#485158;fill-opacity:1;fill-rule:nonzero;stroke:none;stroke-width:0.465051" id="path658"></path><path d="m 511.41521,381.46166 v 10.50084 h -8.27325 v -30.21899 h 8.27325 v 14.50959 h 5.64105 v 5.20856 h -5.64105" style="fill:#485158;fill-opacity:1;fill-rule:nonzero;stroke:none;stroke-width:0.465051" id="path660"></path><path d="m 535.45366,372.45828 h 36.84595 c 0.66968,-0.0185 1.20913,0.52085 1.18122,1.19518 v 15.92798 c 0.0279,1.32539 -1.0417,2.39501 -2.40895,2.39036 h -39.73857 c -0.66967,0.005 -1.20447,-0.54411 -1.18122,-1.21844 V 377.7366 c 0,-3.40882 1.89276,-5.27832 5.30157,-5.27832 z m 2.74845,14.65373 h 27.24266 v -9.8172 h -27.24266 v 9.8172" style="fill:#485158;fill-opacity:1;fill-rule:nonzero;stroke:none;stroke-width:0.465051" id="path662"></path><path d="m 575.96421,363.24563 v 4.84117 h -48.2862 v -4.84117 h 20.03438 v -5.36203 h -17.5603 v -4.86443 h 35.29268 v -4.82257 h -35.29268 v -9.34287 c 0,-3.39487 1.89276,-5.27366 5.30157,-5.27366 h 38.02717 v 4.90627 h -35.27872 v 4.85979 c 0.64643,0 35.27872,0 35.27872,0 v 12.14711 c 0.0279,1.32539 -1.0417,2.40896 -2.40895,2.39036 h -15.11414 v 5.36203 h 20.00647" style="fill:#485158;fill-opacity:1;fill-rule:nonzero;stroke:none;stroke-width:0.465051" id="path664"></path><path d="m 396.32452,361.5668 v 4.92488 h -48.30945 v -4.92488 h 20.02508 v -3.81806 c -8.38021,-1.36725 -16.12795,-6.50607 -16.12795,-12.59822 0,-7.18039 9.2452,-12.99352 20.23434,-12.99352 11.01705,0 20.2669,5.81313 20.2669,12.99352 0,6.09215 -7.73844,11.23097 -16.11864,12.59822 v 3.81806 z M 383.8007,345.15516 c 0,-4.48773 -5.70151,-8.12908 -11.65416,-8.12908 -5.92473,0 -11.62626,3.64135 -11.62626,8.12908 0,4.511 5.70153,8.12909 11.62626,8.12909 5.95265,0 11.65416,-3.61809 11.65416,-8.12909" style="fill:#485158;fill-opacity:1;fill-rule:nonzero;stroke:none;stroke-width:0.465051" id="path666"></path><path d="m 372.29536,378.51789 c 4.75282,-5.1202 13.48646,-8.53368 22.5875,-8.76155 v 5.23182 c -8.32906,0.32553 -16.51394,5.30622 -18.16021,11.61231 h 17.10455 v 4.76676 h -43.3148 v -4.76676 h 17.37428 c -1.68813,-6.35724 -9.97999,-11.39839 -18.42529,-11.63557 v -5.20856 c 9.2173,0.15811 18.06256,3.59948 22.83397,8.76155" style="fill:#485158;fill-opacity:1;fill-rule:nonzero;stroke:none;stroke-width:0.465051" id="path668"></path><path d="m 431.66835,359.02297 c -10.94264,0 -19.82975,-6.0224 -19.82975,-13.44926 0,-7.4222 8.88711,-13.41671 19.82975,-13.41671 10.94729,0 19.8065,5.99451 19.8065,13.41671 0,7.42686 -8.85921,13.44926 -19.8065,13.44926 z m -0.005,-21.98758 c -5.73407,0 -11.22167,3.81806 -11.22167,8.57088 0,4.74351 5.4876,8.56623 11.22167,8.56623 5.72011,0 11.22166,-3.82272 11.22166,-8.56623 0,-4.75282 -5.50155,-8.57088 -11.22166,-8.57088" style="fill:#485158;fill-opacity:1;fill-rule:nonzero;stroke:none;stroke-width:0.465051" id="path670"></path><path d="m 438.66271,377.66219 c 0,8.43137 -7.3943,15.24436 -16.50464,15.24436 -9.12894,0 -16.50464,-6.81299 -16.50464,-15.24436 0,-8.40811 7.3757,-15.24435 16.50464,-15.24435 9.11034,0 16.50464,6.83624 16.50464,15.24435 z m -24.72208,0 c 0,5.73407 4.10174,10.39389 8.22209,10.39389 4.08314,0 8.20814,-4.65982 8.20814,-10.39389 0,-5.73872 -4.125,-10.38922 -8.20814,-10.38922 -4.12035,0 -8.22209,4.6505 -8.22209,10.38922" style="fill:#485158;fill-opacity:1;fill-rule:nonzero;stroke:none;stroke-width:0.465051" id="path672"></path><path d="m 451.67018,381.50352 v 10.51944 h -8.27325 v -30.30269 h 8.27325 v 14.54677 h 5.65036 v 5.23648 h -5.65036" style="fill:#485158;fill-opacity:1;fill-rule:nonzero;stroke:none;stroke-width:0.465051" id="path674"></path><path d="m 262.72948,295.85517 h -7.31525 l 3.57624,12.19827 h 0.0697 z m -12.70054,-7.99887 h 2.94842 l 1.70674,5.45969 h 8.83596 l 1.65092,-5.45969 h 3.26466 l -7.44546,22.89444 h -3.7111 l -7.25014,-22.89444" style="fill:#485158;fill-opacity:1;fill-rule:nonzero;stroke:none;stroke-width:0.465051" id="path700"></path><path d="m 282.03371,310.75074 v -2.53453 h -6.0224 V 287.8563 h -2.91586 v 20.35991 h -6.01775 v 2.53453 h 14.95601" style="fill:#485158;fill-opacity:1;fill-rule:nonzero;stroke:none;stroke-width:0.465051" id="path702"></path><path d="m 288.12588,287.8563 h -2.90656 v 22.89444 h 2.90656 V 287.8563" style="fill:#485158;fill-opacity:1;fill-rule:nonzero;stroke:none;stroke-width:0.465051" id="path704"></path><path d="m 300.03582,289.83277 c -2.76705,0 -4.22266,1.25563 -4.22266,6.27353 v 7.72448 c 0,4.79468 3.30186,4.95744 4.22266,4.95744 0.9115,0 4.21335,-0.16276 4.21335,-4.95744 v -7.72448 c 0,-5.0179 -1.46025,-6.27353 -4.21335,-6.27353 z m 0,-2.44617 c 4.84118,0 7.19432,2.50662 7.19432,8.84991 v 7.50591 c 0,4.56215 -2.35314,7.47801 -7.19432,7.47801 -4.85048,0 -7.19898,-2.91586 -7.19898,-7.47801 v -7.50591 c 0,-6.34329 2.3485,-8.84991 7.19898,-8.84991" style="fill:#485158;fill-opacity:1;fill-rule:nonzero;stroke:none;stroke-width:0.465051" id="path706"></path><path d="M 327.62262,310.75074 V 287.8563 h -3.99479 l -9.02664,19.84836 h -0.0651 V 287.8563 h -2.59963 v 22.89444 h 4.11569 l 8.91036,-19.59259 h 0.0604 v 19.59259 h 2.59963" style="fill:#485158;fill-opacity:1;fill-rule:nonzero;stroke:none;stroke-width:0.465051" id="path708"></path><path d="m 343.1553,295.85517 h -7.3106 l 3.56694,12.19827 h 0.0651 z m -12.70983,-7.99887 h 2.94377 l 1.71603,5.45969 h 8.84526 l 1.65558,-5.45969 h 3.2507 l -7.44545,22.89444 h -3.7018 l -7.26409,-22.89444" style="fill:#485158;fill-opacity:1;fill-rule:nonzero;stroke:none;stroke-width:0.465051" id="path710"></path><path d="m 351.68898,287.8563 v 22.89444 h 2.92516 v -20.35526 h 8.38486 v -2.53918 h -11.31002" style="fill:#485158;fill-opacity:1;fill-rule:nonzero;stroke:none;stroke-width:0.465051" id="path712"></path><path d="m 403.68627,310.75074 h 2.90656 V 296.1063 c 0,-5.0179 1.52072,-6.27353 4.26917,-6.27353 2.75775,0 4.28311,1.25563 4.28311,6.27353 v 14.64444 h 2.92517 v -14.51423 c 0,-6.34329 -2.3485,-8.84991 -7.20828,-8.84991 -4.84583,0 -7.17573,2.50662 -7.17573,8.84991 v 14.51423" style="fill:#485158;fill-opacity:1;fill-rule:nonzero;stroke:none;stroke-width:0.465051" id="path714"></path><path d="m 425.10184,294.67859 v -0.66502 c 0,-3.10189 1.97181,-4.0878 3.84132,-4.0878 2.30665,0 4.07849,0.98591 4.07849,3.69715 0,5.07371 -10.25902,4.50635 -10.25902,11.38444 0,4.05524 2.86937,6.21307 6.70603,6.21307 4.18546,0 6.52931,-2.02296 6.34329,-6.68276 h -3.04143 c 0.0325,2.50661 -0.76733,4.14824 -3.51578,4.14824 -1.74394,0 -3.51579,-0.87894 -3.51579,-3.36697 0,-5.03649 10.25902,-4.30637 10.25902,-11.5658 0,-4.80862 -3.32046,-6.36654 -7.09201,-6.36654 -6.74789,-0.0651 -6.74789,5.10625 -6.69209,7.29199 h 2.88797" style="fill:#485158;fill-opacity:1;fill-rule:nonzero;stroke:none;stroke-width:0.465051" id="path716"></path><path d="m 440.13692,287.8563 v 22.89444 h 11.79833 v -2.53453 h -8.88712 v -7.36175 h 8.25 v -2.52988 h -8.25 v -7.9291 h 9.0685 v -2.53918 h -11.97971" style="fill:#485158;fill-opacity:1;fill-rule:nonzero;stroke:none;stroke-width:0.465051" id="path718"></path><path d="m 455.99514,310.75074 h 2.91587 V 296.1063 c 0,-5.0179 1.51141,-6.27353 4.27846,-6.27353 2.75775,0 4.28311,1.25563 4.28311,6.27353 v 14.64444 h 2.90657 v -14.51423 c 0,-6.34329 -2.3392,-8.84991 -7.18968,-8.84991 -4.85513,0 -7.19433,2.50662 -7.19433,8.84991 v 14.51423" style="fill:#485158;fill-opacity:1;fill-rule:nonzero;stroke:none;stroke-width:0.465051" id="path720"></path><path d="m 477.80135,287.8563 h -2.70659 v 22.89444 h 4.72491 L 485.577,291.5302 h 0.0651 l 5.82707,19.22054 h 4.82723 V 287.8563 h -2.92516 v 20.35991 h -0.0651 l -6.40375,-20.35991 h -2.7531 l -6.28283,20.35991 h -0.0651 V 287.8563" style="fill:#485158;fill-opacity:1;fill-rule:nonzero;stroke:none;stroke-width:0.465051" id="path722"></path><path d="m 514.64731,289.83277 c -2.75776,0 -4.20871,1.25563 -4.20871,6.27353 v 7.72448 c 0,4.79468 3.28791,4.95744 4.20871,4.95744 0.92079,0 4.218,-0.16276 4.218,-4.95744 v -7.72448 c 0,-5.0179 -1.4649,-6.27353 -4.218,-6.27353 z m 0,-2.44617 c 4.85512,0 7.18968,2.50662 7.18968,8.84991 v 7.50591 c 0,4.56215 -2.33456,7.47801 -7.18968,7.47801 -4.85513,0 -7.20829,-2.91586 -7.20829,-7.47801 v -7.50591 c 0,-6.34329 2.35316,-8.84991 7.20829,-8.84991" style="fill:#485158;fill-opacity:1;fill-rule:nonzero;stroke:none;stroke-width:0.465051" id="path724"></path><path d="m 526.53865,287.8563 v 22.89444 h 11.35653 v -2.53453 h -8.43137 v -7.36175 h 7.98492 v -2.52988 h -7.98492 V 287.8563 h -2.92516" style="fill:#485158;fill-opacity:1;fill-rule:nonzero;stroke:none;stroke-width:0.465051" id="path726"></path><path d="m 631.50518,295.85517 h -7.30594 l 3.57159,12.19827 h 0.0559 z m -12.70053,-7.99887 h 2.93912 l 1.71139,5.45969 h 8.84061 l 1.66953,-5.45969 h 3.24606 l -7.44547,22.89444 h -3.70644 l -7.2548,-22.89444" style="fill:#485158;fill-opacity:1;fill-rule:nonzero;stroke:none;stroke-width:0.465051" id="path728"></path><path d="m 575.35499,289.83277 c -2.7531,0 -4.2087,1.25563 -4.2087,6.27353 v 7.72448 c 0,4.79468 3.2879,4.95744 4.2087,4.95744 0.9115,0 4.21335,-0.16276 4.21335,-4.95744 v -7.72448 c 0,-5.0179 -1.4742,-6.27353 -4.21335,-6.27353 z m 0,-2.44617 c 4.84582,0 7.18503,2.50662 7.18503,8.84991 v 7.50591 c 0,4.56215 -2.33921,7.47801 -7.18503,7.47801 -4.85048,0 -7.18503,-2.91586 -7.18503,-7.47801 v -7.50591 c 0,-6.34329 2.33455,-8.84991 7.18503,-8.84991" style="fill:#485158;fill-opacity:1;fill-rule:nonzero;stroke:none;stroke-width:0.465051" id="path730"></path><path d="m 590.1808,308.21621 h 4.39938 c 2.25549,0 3.08328,-1.8416 3.08328,-3.49718 0,-2.00437 -1.01846,-3.79482 -3.11584,-3.79482 h -4.36682 z m 3.40417,-9.83117 c 0.99521,0 3.2507,-0.1163 3.46928,-2.90656 0.24647,-3.04143 0.0604,-6.02705 0.87894,-7.62218 h 3.04608 c -0.44645,1.43236 -0.76268,5.00859 -0.78594,5.99915 -0.15811,4.5854 -1.10681,5.48295 -3.73899,5.89684 v 0.0697 c 2.68799,0.4604 4.18544,2.52523 4.18544,5.21787 0,2.85541 -1.45095,5.71082 -5.49689,5.71082 h -7.8919 v -22.89444 h 2.92981 V 298.385 h 3.40417" style="fill:#485158;fill-opacity:1;fill-rule:nonzero;stroke:none;stroke-width:0.465051" id="path732"></path><path d="m 604.82059,287.8563 v 22.89444 h 11.77973 v -2.53453 h -8.86387 v -7.36175 h 8.2407 v -2.52988 h -8.2407 v -7.9291 h 9.04524 v -2.53918 h -11.9611" style="fill:#485158;fill-opacity:1;fill-rule:nonzero;stroke:none;stroke-width:0.465051" id="path734"></path><path d="m 243.75541,291.61856 -10.80311,23.69897 h -5.09696 V 287.8563 h 3.26931 v 23.69897 l 10.79846,-23.69897 h 5.1016 v 27.46123 h -3.2693 v -23.69897" style="fill:#485158;fill-opacity:1;fill-rule:nonzero;stroke:none;stroke-width:0.465051" id="path736"></path><path d="m 393.32959,315.31753 -7.05017,-22.28986 -7.05016,22.28986 h -5.6364 V 287.8563 h 3.27395 v 24.60117 l 7.78029,-24.60117 h 3.26931 l 7.78494,24.60117 V 287.8563 h 3.27396 v 27.46123 h -5.64572" style="fill:#485158;fill-opacity:1;fill-rule:nonzero;stroke:none;stroke-width:0.465051" id="path738"></path><path d="m 567.36078,287.8563 -11.31468,14.75605 11.29608,12.70518 h -4.19477 l -10.83102,-12.21222 v 12.21222 h -3.2693 V 287.8563 h 3.2693 v 14.2631 l 10.90078,-14.2631 h 4.14361" style="fill:#485158;fill-opacity:1;fill-rule:nonzero;stroke:none;stroke-width:0.465051" id="path740"></path></g></g></g></g></svg>
